<?xml version="1.0" encoding="UTF-8" standalone="no"?>
<!DOCTYPE svg PUBLIC "-//W3C//DTD SVG 1.1//EN" "http://www.w3.org/Graphics/SVG/1.1/DTD/svg11.dtd">
<svg width="123.43" height="123.43" viewBox="0.00 0.00 600.00 600.00" xmlns="http://www.w3.org/2000/svg" xmlns:xlink="http://www.w3.org/1999/xlink">
<g stroke-linecap="round" id="レイヤー_1">
<path d="M-25.51,236.82 C-25.51,236.82 -29.23,236.48 -29.23,236.48 C-28.98,236.14 -25.74,234.26 -25.36,231.84 C-25.29,231.39 -25.55,230.34 -26.12,228.68 C-26.30,228.17 -26.49,227.57 -26.67,226.87" fill="none" stroke="rgb(252, 123, 35)" stroke-width="10.00" stroke-opacity="1.00" stroke-linejoin="round"/>
<path d="M-29.37,23.32 C-23.27,19.80 8.13,5.94 24.36,-1.16 C39.37,-7.68 69.16,-20.56 83.93,-26.93 C101.52,-34.37 123.49,-42.71 137.24,-47.39 C148.04,-50.90 158.28,-53.89 163.66,-54.94 C167.73,-55.70 169.17,-55.41 170.86,-54.75 C170.29,-52.84 169.85,-52.00 168.75,-50.94 C162.96,-45.14 151.07,-35.47 145.66,-31.25 C132.15,-21.01 106.10,-1.17 93.56,8.43 C82.23,17.40 59.10,36.12 47.30,45.86 C36.19,55.30 14.94,73.70 4.81,82.66 C-20.09,105.89 -76.23,158.71 -93.04,175.25 C-100.94,183.60 -122.18,207.28 -129.22,216.58 C-135.19,224.88 -138.07,229.55 -139.48,232.34 C-129.76,220.60 -109.39,196.63 -99.58,185.92 C-89.51,175.35 -68.42,154.64 -57.05,144.07 C-45.84,134.04 -23.77,115.28 -12.41,106.13 C-0.47,96.87 27.90,76.19 37.58,69.66 C50.47,61.29 72.72,47.05 90.16,37.05 C104.11,29.36 132.80,13.83 147.44,6.33 C162.07,-0.82 189.56,-13.46 203.02,-19.53 C216.27,-25.21 245.05,-36.47 260.25,-41.96 C304.12,-57.18 318.53,-60.71 326.40,-62.40 C319.87,-59.60 309.65,-55.22 308.00,-54.61 C307.05,-54.25 306.66,-52.43 306.31,-51.77 C305.22,-49.70 271.80,-28.68 259.29,-20.93 C245.52,-12.18 218.53,5.51 205.30,14.44 C193.75,22.49 171.68,38.80 159.66,48.16 C148.78,56.82 127.27,75.21 115.08,85.90 C102.17,97.46 73.86,123.03 66.47,130.13 C57.86,138.64 37.17,159.89 26.47,171.35 C16.45,182.37 -2.09,203.70 -11.87,216.09 C-21.45,228.71 -36.98,251.59 -45.86,264.97 C-50.17,271.71 -60.06,287.34 -62.48,291.52 C-65.19,296.23 -71.85,311.69 -72.66,314.13 C-70.96,313.40 -66.54,307.70 -65.47,306.34 C-54.83,292.74 -34.34,267.17 -25.61,256.88 C-16.73,246.72 3.86,224.43 13.94,213.71 C26.24,201.35 49.17,179.66 61.04,168.64 C74.60,156.34 94.45,139.87 105.15,131.22 C121.25,118.57 141.99,103.40 154.04,95.04 C166.50,86.77 192.17,70.79 205.47,63.06 C218.95,55.66 243.17,43.19 260.95,34.85 C275.18,28.51 304.11,16.64 318.61,11.19 C333.17,5.99 362.03,-3.43 376.31,-7.69 C390.22,-11.48 417.43,-18.63 433.63,-22.31 C448.65,-25.46 479.88,-31.79 496.63,-34.82 C512.48,-37.37 546.75,-42.57 556.65,-43.62 C563.05,-44.22 578.01,-45.25 585.59,-45.73 C592.97,-46.07 608.42,-46.62 612.55,-45.72 C614.96,-45.16 617.72,-42.46 618.00,-41.79 C618.09,-41.58 618.13,-41.21 618.13,-40.70" fill="none" stroke="rgb(252, 123, 35)" stroke-width="100.00" stroke-opacity="1.00" stroke-linejoin="round"/>
<path d="M89.27,658.33 C96.67,650.83 121.25,629.12 132.21,620.62 C137.98,616.31 150.22,607.59 156.51,603.19 C167.91,595.71 195.79,578.80 208.72,571.14 C222.44,563.29 249.52,548.19 262.83,541.23 C275.89,534.73 302.97,521.59 317.00,514.96 C331.09,508.75 359.77,496.51 374.36,490.46 C389.08,484.80 418.58,473.85 433.37,468.55 C447.91,463.77 476.70,454.66 490.95,450.32 C506.07,446.08 535.92,437.97 550.65,434.10 C566.02,430.29 595.90,423.12 610.40,419.75 C623.85,416.85 652.53,411.32 666.84,409.46 C676.39,408.38 681.96,408.40 686.68,408.72 C685.19,410.54 680.42,412.82 676.87,414.43 C660.37,421.59 592.19,447.27 562.30,458.60 C548.82,464.11 521.55,475.55 507.76,481.50 C493.78,487.90 466.11,500.91 452.43,507.51 C439.13,514.26 412.18,528.30 398.51,535.58 C384.86,543.20 358.06,558.58 344.90,566.34 C331.72,574.55 305.51,591.31 292.47,599.88 C279.38,609.02 255.13,626.21 242.17,635.86 C233.04,642.92 210.78,661.71 209.11,663.90 C209.11,663.90 209.48,664.94 209.48,664.94 C212.80,664.64 217.87,662.76 220.96,661.45 C227.75,658.52 262.20,641.13 277.13,633.58 C291.81,626.40 319.86,613.55 333.69,607.38 C362.74,595.06 420.15,571.24 448.50,559.73 C462.89,554.13 491.69,543.24 506.10,537.94 C520.60,532.97 549.33,523.39 564.71,518.69 C579.35,514.51 607.57,506.75 621.15,503.18 C651.68,495.92 710.13,483.20 732.53,479.38 C702.43,489.45 630.96,513.79 612.10,521.21 C599.49,526.39 570.78,538.96 557.00,545.38 C543.88,551.80 515.76,566.50 501.14,574.33 C486.93,582.19 458.04,598.45 448.65,604.17 C438.54,610.72 428.83,618.40 428.65,620.78 C428.63,621.12 428.87,621.64 429.35,622.36 C432.73,623.10 437.07,622.66 439.65,622.43 C448.24,621.43 534.98,600.94 564.74,594.68 C580.66,591.59 610.00,586.67 624.56,584.36 C640.24,582.14 670.94,578.00 685.97,576.07 C701.67,573.76 726.97,569.39 735.24,567.86 C738.33,567.28 743.66,566.28 745.90,565.86" fill="none" stroke="rgb(252, 123, 35)" stroke-width="100.00" stroke-opacity="1.00" stroke-linejoin="round"/>
<path d="M107.93,291.15 C119.54,288.06 195.67,274.55 226.85,268.70 C234.31,267.44 250.48,264.92 254.60,264.52 C256.77,264.32 264.38,263.85 266.07,263.86" fill="none" stroke="rgb(252, 123, 35)" stroke-width="30.00" stroke-opacity="1.00" stroke-linejoin="round"/>
<path d="M268.64,166.03 C265.80,165.22 260.75,164.99 256.67,165.48 C249.82,166.37 237.73,170.18 230.12,172.91 C224.04,175.18 213.51,180.83 207.86,185.02 C204.05,187.88 200.16,192.35 198.02,196.05 C196.08,199.47 193.84,204.93 193.02,208.26 C191.98,212.63 189.82,228.59 188.97,236.11 C187.94,247.28 186.38,280.40 186.13,296.01 C186.24,310.23 186.83,339.51 187.31,354.57 C188.09,370.36 189.95,401.95 191.13,415.97 C191.92,423.06 193.65,434.55 193.94,435.93 C194.26,437.44 194.84,439.60 195.17,440.62" fill="none" stroke="rgb(252, 123, 35)" stroke-width="30.00" stroke-opacity="1.00" stroke-linejoin="round"/>
<path d="M340.19,112.72 C339.53,116.71 341.25,132.91 342.19,141.20 C343.93,158.84 344.53,184.05 344.78,199.67 C344.84,215.38 344.91,244.96 344.93,258.83 C345.29,274.16 346.26,306.54 346.86,323.58 C347.57,338.90 350.79,381.78 351.18,384.84 C351.36,386.24 351.79,388.90 352.03,390.24" fill="none" stroke="rgb(252, 123, 35)" stroke-width="30.00" stroke-opacity="1.00" stroke-linejoin="round"/>
<path d="M347.26,268.96 C351.80,267.97 366.25,265.86 374.09,265.82 C382.01,265.81 397.05,267.69 404.02,269.54 C409.29,270.97 424.10,276.54 428.56,279.34 C429.46,279.91 435.56,284.05 438.39,286.58 C441.23,289.15 446.18,295.04 448.01,297.99 C449.82,300.96 452.25,307.11 452.80,310.24 C453.34,313.52 452.72,319.86 451.54,323.01 C450.30,326.20 446.38,332.12 444.33,334.40 C440.00,339.15 433.76,344.36 424.61,350.71 C418.88,354.57 405.79,361.12 400.13,363.14 C392.94,365.68 378.48,368.76 373.10,369.04 C366.99,369.33 351.89,367.98 347.14,367.54" fill="none" stroke="rgb(252, 123, 35)" stroke-width="30.00" stroke-opacity="1.00" stroke-linejoin="round"/>
<path d="M437.08,388.95 C438.20,400.67 438.30,432.42 438.31,447.96 C438.18,482.14 438.04,518.77 438.03,521.22 C438.90,493.66 439.09,443.87 439.09,428.03 C439.36,414.39 440.55,397.33 440.49,394.65 C440.49,394.03 442.32,392.58 442.91,391.91 C442.96,391.86 443.57,389.06 443.92,388.26 C447.30,387.80 489.84,386.43 508.75,385.86 C515.77,385.69 531.66,385.32 538.13,385.91 C540.05,386.11 544.57,386.77 545.17,387.32 C545.27,387.42 544.37,509.24 544.25,509.87 C544.21,510.08 544.07,510.21 543.85,510.25 C540.95,501.10 539.55,494.48 539.13,486.75 C538.91,482.45 539.19,463.09 539.63,454.93 C540.84,439.58 544.00,415.79 543.93,415.49 C543.63,414.42 540.76,412.79 538.87,412.43 C537.50,412.21 480.67,414.61 477.50,414.54 C471.64,414.40 463.06,412.16 463.06,412.16 C462.42,412.04 458.63,412.05 457.20,412.05 C471.55,410.73 505.43,408.51 515.59,408.51 C520.27,408.60 521.76,408.87 524.64,409.61 C524.06,410.87 523.24,411.64 521.33,412.36 C516.16,414.31 478.92,424.95 464.55,428.83 C471.05,428.22 486.48,426.85 494.92,426.34 C516.71,425.43 525.50,426.75 526.87,427.00 C526.87,427.00 527.25,428.24 527.25,428.24 C527.25,428.24 465.40,444.50 465.40,444.50 C483.88,441.82 511.64,438.83 522.38,438.89 C524.11,438.90 527.59,439.00 529.26,439.08 C526.45,440.18 489.36,448.37 474.19,452.19 C468.56,453.64 460.36,455.91 459.46,456.16 C466.58,455.55 484.33,453.84 486.38,453.70 C497.93,453.11 523.91,452.72 529.72,453.47 C525.55,455.43 508.91,459.23 500.55,461.08 C482.97,465.17 467.53,469.93 466.53,470.23 C482.11,467.90 504.10,464.75 509.70,464.68 C516.27,464.65 517.86,465.05 519.76,465.99 C517.57,467.62 515.21,468.70 510.43,470.32 C494.81,475.37 470.35,483.43 461.49,486.44 C482.05,482.58 504.05,480.00 518.84,479.90 C525.39,479.90 527.56,480.45 530.02,481.36 C527.77,483.00 526.47,483.72 524.68,484.19 C518.29,485.86 475.05,493.58 461.96,494.98 C453.78,495.75 448.11,495.76 447.17,495.77 C447.97,495.07 476.39,482.58 478.32,481.27 C479.27,480.58 480.15,478.47 480.11,477.07 C480.00,475.56 475.05,470.89 471.58,469.42 C468.44,468.14 461.52,467.49 459.41,467.94 C457.11,468.51 455.00,469.95 454.69,471.47 C454.67,471.62 454.78,483.27 454.61,485.25 C454.34,488.30 452.86,495.04 452.12,498.30 C451.78,500.00 451.89,502.58 452.43,503.75 C453.11,505.13 456.83,506.14 459.97,506.47 C465.01,506.99 473.55,507.11 485.41,506.47 C493.95,505.91 510.73,504.80 518.97,504.24 C530.08,503.54 532.16,503.92 533.71,504.44 C533.34,504.99 530.70,506.16 529.73,506.74 C528.59,507.44 524.15,513.89 521.89,515.38 C519.04,517.23 503.09,518.37 496.03,518.84 C479.75,519.90 448.23,522.23 432.98,523.50 C425.56,523.99 409.88,524.58 405.17,524.22 C401.47,523.91 391.32,521.62 389.87,521.59 C394.66,525.09 403.66,531.58 411.80,536.83 C424.12,544.44 454.38,559.96 467.37,566.18 C472.24,568.39 486.89,574.41 491.67,577.08 C491.92,577.22 492.33,577.47 492.92,577.82 C485.58,572.84 478.74,568.67 468.74,563.18 C462.23,559.73 449.01,552.78 443.33,549.31 C430.54,541.09 408.48,526.55 405.63,523.66 C405.40,523.42 398.34,515.85 396.53,514.78 C396.13,514.54 390.10,512.56 388.18,511.79 C388.18,511.79 387.03,512.68 387.03,512.68 C391.32,512.96 430.81,509.07 446.89,507.88 C460.64,507.20 493.31,508.24 504.29,508.35 C525.56,508.10 552.78,505.53 566.24,504.85 C574.33,504.54 583.25,504.62 584.35,504.63 C583.43,505.24 570.10,517.41 564.06,522.64 C556.73,528.78 544.98,537.61 542.36,539.74 C536.56,544.46 506.86,570.93 503.66,573.62 C502.00,572.31 500.16,573.18 499.02,574.28 C499.02,574.28 536.31,524.44 536.31,524.44 C535.62,524.48 519.25,531.43 512.69,534.11 C507.67,536.06 489.40,542.06 481.99,544.25 C473.97,546.51 461.45,549.29 458.46,549.68 C458.46,549.68 527.79,538.24 527.79,538.24 C527.79,538.24 484.06,543.35 484.06,543.35 C486.16,545.03 491.22,549.18 492.95,551.54 C493.87,552.84 495.34,556.33 495.78,558.21 C496.26,560.38 496.40,564.18 496.14,566.57 C496.02,567.72 495.76,571.61 496.62,571.78 C497.90,571.99 501.29,571.22 502.13,571.40 C502.13,571.40 496.66,575.94 496.66,575.94 C496.66,575.94 491.80,577.49 491.80,577.49 C493.31,578.85 494.06,579.37 496.03,580.36 C497.68,581.16 499.68,581.15 500.92,580.35 C500.96,580.31 504.57,575.22 509.44,570.31 C514.53,565.26 514.88,564.85 514.61,564.88 C514.61,564.88 512.81,565.19 512.81,565.19" fill="none" stroke="rgb(35, 252, 245)" stroke-width="30.00" stroke-opacity="1.00" stroke-linejoin="round"/>
<path d="M364.64,508.85 C369.13,509.15 375.16,509.26 379.05,509.06 C382.49,508.88 395.50,507.55 398.17,507.46 C398.17,507.46 371.22,508.62 371.22,508.62 C371.22,508.62 391.85,506.21 391.85,506.21 C391.85,506.21 369.35,507.43 369.35,507.43 C369.35,507.43 393.90,502.73 393.90,502.73 C393.90,502.73 367.05,506.31 367.05,506.31 C367.05,506.31 388.68,502.79 388.68,502.79 C388.68,502.79 362.91,503.43 362.91,503.43 C362.91,503.43 394.58,498.99 394.58,498.99 C394.58,498.99 369.93,501.62 369.93,501.62 C369.93,501.62 397.59,499.74 397.59,499.74 C389.72,500.11 369.12,501.16 366.68,502.01 C365.58,502.41 365.05,502.92 364.94,503.52 C369.56,514.69 384.41,527.32 387.59,529.52 C387.59,529.52 360.70,509.36 360.70,509.36 C362.62,511.27 366.92,515.51 370.05,517.96 C373.77,520.75 377.52,523.70 380.59,524.92 C380.59,524.92 362.84,506.18 362.84,506.18 C362.84,506.18 380.37,524.02 380.37,524.02 C380.37,524.02 357.30,507.29 357.30,507.29 C357.30,507.29 374.55,514.60 374.55,514.60 C374.55,514.60 362.86,504.42 362.86,504.42 C362.86,504.42 377.73,505.52 377.73,505.52 C377.73,505.52 363.73,506.45 363.73,506.45 C363.73,506.45 372.88,504.89 372.88,504.89 C372.88,504.89 361.65,503.94 361.65,503.94 C361.65,503.94 359.10,504.17 359.10,504.17 C359.10,504.17 366.66,505.46 366.66,505.46 C366.66,505.46 359.19,504.78 359.19,504.78 C359.19,504.78 365.85,504.28 365.85,504.28 C365.85,504.28 363.60,502.91 363.60,502.91 C363.60,502.91 371.22,503.26 371.22,503.26" fill="none" stroke="rgb(35, 252, 245)" stroke-width="5.00" stroke-opacity="1.00" stroke-linejoin="round"/>
<path d="M568.97,494.57 C577.26,493.74 591.72,493.46 597.59,494.10 C598.48,494.20 602.04,494.72 603.11,494.87 C603.11,494.87 580.24,497.56 580.24,497.56 C585.35,496.06 600.10,495.68 602.56,496.30 C602.56,496.30 587.30,496.27 587.30,496.27 C590.38,495.26 596.88,494.80 599.82,494.68 C603.51,494.55 607.75,495.32 609.03,495.75 C606.91,497.69 601.10,499.95 597.52,501.32 C595.57,502.06 592.34,503.28 591.05,503.76 C591.05,503.76 605.28,497.86 605.28,497.86 C605.28,497.86 587.43,505.88 587.43,505.88 C587.43,505.88 603.91,498.27 603.91,498.27 C603.91,498.27 594.24,505.90 594.24,505.90 C594.24,505.90 607.41,495.04 607.41,495.04 C605.60,494.67 603.93,495.00 601.08,496.47 C600.00,497.03 598.92,497.58 597.85,498.14 C597.85,498.14 602.03,494.05 602.03,494.05 C602.03,494.05 594.98,495.05 594.98,495.05 C594.98,495.05 599.18,492.63 599.18,492.63 C599.18,492.63 590.31,492.55 590.31,492.55 C590.31,492.55 606.39,490.43 606.39,490.43 C606.39,490.43 583.49,490.71 583.49,490.71 C583.49,490.71 608.51,491.60 608.51,491.60 C608.51,491.60 587.49,493.39 587.49,493.39 C590.97,493.13 599.03,492.55 603.63,492.23 C606.23,492.04 606.96,492.17 607.26,492.75 C605.03,493.89 585.62,500.03 583.55,500.81 C582.49,501.21 582.08,501.66 581.85,502.39 C582.94,502.41 585.94,502.48 586.79,502.45 C587.34,502.43 588.48,502.35 590.21,502.22" fill="none" stroke="rgb(35, 252, 245)" stroke-width="5.00" stroke-opacity="1.00" stroke-linejoin="round"/>
</g>
</svg>
